<svg width="20" height="20" viewBox="0 0 20 20" fill="none" xmlns="http://www.w3.org/2000/svg">
<g id="Left icon">
<path id="Vector" d="M11.083 14.4167L7.24967 10.5834C7.16634 10.5001 7.10745 10.4098 7.07301 10.3126C7.03801 10.2154 7.02051 10.1112 7.02051 10.0001C7.02051 9.88897 7.03801 9.7848 7.07301 9.68758C7.10745 9.59036 7.16634 9.50008 7.24967 9.41675L11.083 5.58341C11.2358 5.43064 11.4302 5.35425 11.6663 5.35425C11.9025 5.35425 12.0969 5.43064 12.2497 5.58341C12.4025 5.73619 12.4788 5.93064 12.4788 6.16675C12.4788 6.40286 12.4025 6.5973 12.2497 6.75008L8.99967 10.0001L12.2497 13.2501C12.4025 13.4029 12.4788 13.5973 12.4788 13.8334C12.4788 14.0695 12.4025 14.264 12.2497 14.4167C12.0969 14.5695 11.9025 14.6459 11.6663 14.6459C11.4302 14.6459 11.2358 14.5695 11.083 14.4167Z" fill="#D0D5DD"/>
</g>
</svg>
