<svg width="24" height="24" viewBox="0 0 24 24" fill="none" xmlns="http://www.w3.org/2000/svg">
<path d="M11.2248 8.52478C11.3375 8.41211 11.4008 8.25931 11.4008 8.09998C11.4008 7.94064 11.3375 7.78784 11.2248 7.67518C11.1121 7.56251 10.9593 7.49922 10.8 7.49922C10.6407 7.49922 10.4879 7.56251 10.3752 7.67518L8.68081 9.36958L8.20441 8.93518C8.08604 8.834 7.93297 8.78281 7.77755 8.79242C7.62213 8.80202 7.47654 8.87167 7.37153 8.98665C7.26652 9.10163 7.21032 9.25293 7.21482 9.40859C7.21931 9.56424 7.28414 9.71204 7.39561 9.82078L8.29561 10.6428C8.40964 10.7466 8.55927 10.8025 8.71345 10.799C8.86763 10.7954 9.01451 10.7326 9.12361 10.6236L11.2248 8.52478ZM11.2248 13.6752C11.2807 13.7309 11.325 13.7971 11.3553 13.87C11.3855 13.9429 11.4011 14.0211 11.4011 14.1C11.4011 14.1789 11.3855 14.257 11.3553 14.3299C11.325 14.4028 11.2807 14.469 11.2248 14.5248L9.12481 16.6248C9.01549 16.734 8.86828 16.7968 8.71382 16.8001C8.55935 16.8035 8.40955 16.7471 8.29561 16.6428L7.39561 15.8208C7.28414 15.712 7.21931 15.5642 7.21482 15.4086C7.21032 15.2529 7.26652 15.1016 7.37153 14.9867C7.47654 14.8717 7.62213 14.802 7.77755 14.7924C7.93297 14.7828 8.08604 14.834 8.20441 14.9352L8.68081 15.3708L10.3752 13.6752C10.4309 13.6193 10.4972 13.575 10.57 13.5447C10.6429 13.5145 10.7211 13.4989 10.8 13.4989C10.8789 13.4989 10.9571 13.5145 11.03 13.5447C11.1029 13.575 11.1691 13.6193 11.2248 13.6752ZM13.2 14.4C13.0409 14.4 12.8883 14.4632 12.7757 14.5757C12.6632 14.6882 12.6 14.8408 12.6 15C12.6 15.1591 12.6632 15.3117 12.7757 15.4242C12.8883 15.5368 13.0409 15.6 13.2 15.6H16.2C16.3591 15.6 16.5117 15.5368 16.6243 15.4242C16.7368 15.3117 16.8 15.1591 16.8 15C16.8 14.8408 16.7368 14.6882 16.6243 14.5757C16.5117 14.4632 16.3591 14.4 16.2 14.4H13.2ZM12.6 8.99998C12.6 8.84085 12.6632 8.68823 12.7757 8.57571C12.8883 8.46319 13.0409 8.39998 13.2 8.39998H16.2C16.3591 8.39998 16.5117 8.46319 16.6243 8.57571C16.7368 8.68823 16.8 8.84085 16.8 8.99998C16.8 9.15911 16.7368 9.31172 16.6243 9.42424C16.5117 9.53676 16.3591 9.59998 16.2 9.59998H13.2C13.0409 9.59998 12.8883 9.53676 12.7757 9.42424C12.6632 9.31172 12.6 9.15911 12.6 8.99998ZM7.20001 3.59998C6.24523 3.59998 5.32955 3.97926 4.65442 4.65439C3.97929 5.32952 3.60001 6.2452 3.60001 7.19998V16.8C3.60001 17.7548 3.97929 18.6704 4.65442 19.3456C5.32955 20.0207 6.24523 20.4 7.20001 20.4H16.8C17.7548 20.4 18.6705 20.0207 19.3456 19.3456C20.0207 18.6704 20.4 17.7548 20.4 16.8V7.19998C20.4 6.2452 20.0207 5.32952 19.3456 4.65439C18.6705 3.97926 17.7548 3.59998 16.8 3.59998H7.20001ZM4.80001 7.19998C4.80001 6.56346 5.05286 5.95301 5.50295 5.50292C5.95304 5.05283 6.56349 4.79998 7.20001 4.79998H16.8C17.4365 4.79998 18.047 5.05283 18.4971 5.50292C18.9471 5.95301 19.2 6.56346 19.2 7.19998V16.8C19.2 17.4365 18.9471 18.0469 18.4971 18.497C18.047 18.9471 17.4365 19.2 16.8 19.2H7.20001C6.56349 19.2 5.95304 18.9471 5.50295 18.497C5.05286 18.0469 4.80001 17.4365 4.80001 16.8V7.19998Z" fill="black" stroke="black" stroke-width="0.7"/>
</svg>
