<svg width="24" height="24" viewBox="0 0 24 24" fill="none" xmlns="http://www.w3.org/2000/svg">
<mask id="path-1-inside-1_463_3385" fill="white">
<path d="M7.6875 10.3125H6.75C6.60082 10.3125 6.45774 10.2532 6.35225 10.1477C6.24676 10.0422 6.1875 9.89915 6.1875 9.74997C6.1875 9.60079 6.24676 9.45771 6.35225 9.35222C6.45774 9.24673 6.60082 9.18747 6.75 9.18747H9.75C9.89918 9.18747 10.0423 9.24673 10.1477 9.35222C10.2532 9.45771 10.3125 9.60079 10.3125 9.74997C10.3125 9.89915 10.2532 10.0422 10.1477 10.1477C10.0423 10.2532 9.89918 10.3125 9.75 10.3125H8.8125V14.25C8.8125 14.3992 8.75324 14.5422 8.64775 14.6477C8.54226 14.7532 8.39918 14.8125 8.25 14.8125C8.10082 14.8125 7.95774 14.7532 7.85225 14.6477C7.74676 14.5422 7.6875 14.3992 7.6875 14.25V10.3125ZM21.5625 8.69434V14.25C21.5626 15.1629 21.2128 16.0411 20.5849 16.7038C19.9571 17.3665 19.0991 17.7633 18.1875 17.8125C17.7702 18.9171 17.0264 19.8685 16.055 20.5399C15.0837 21.2114 13.9308 21.571 12.75 21.571C11.5692 21.571 10.4163 21.2114 9.44496 20.5399C8.4736 19.8685 7.72977 18.9171 7.3125 17.8125H3.75C3.4019 17.8125 3.06806 17.6742 2.82192 17.428C2.57578 17.1819 2.4375 16.8481 2.4375 16.5V7.49997C2.4375 7.15187 2.57578 6.81803 2.82192 6.57189C3.06806 6.32575 3.4019 6.18747 3.75 6.18747H9.31312C9.08576 5.34602 9.17477 4.4504 9.5633 3.67016C9.95184 2.88992 10.6129 2.27919 11.4215 1.95358C12.23 1.62798 13.1299 1.61009 13.9507 1.9033C14.7715 2.19651 15.4564 2.78047 15.8756 3.54466C16.4384 3.22885 17.0927 3.1162 17.7287 3.22561C18.3647 3.33501 18.9438 3.65981 19.3687 4.14552C19.7936 4.63123 20.0386 5.2483 20.0625 5.89321C20.0864 6.53812 19.8878 7.17163 19.5 7.68747H20.5575C20.8241 7.68821 21.0796 7.79459 21.268 7.98331C21.4564 8.17203 21.5623 8.4277 21.5625 8.69434ZM16.2581 4.63591C16.2943 4.83859 16.3125 5.04408 16.3125 5.24997C16.3127 6.15542 15.9681 7.02697 15.3488 7.68747H17.25C17.5165 7.68772 17.7792 7.62487 18.0167 7.50407C18.2542 7.38326 18.4597 7.20793 18.6164 6.99243C18.7731 6.77693 18.8766 6.52738 18.9183 6.26421C18.96 6.00105 18.9388 5.73174 18.8564 5.47833C18.7741 5.22493 18.6329 4.99463 18.4444 4.80629C18.2559 4.61794 18.0255 4.47691 17.772 4.39473C17.5186 4.31255 17.2493 4.29156 16.9861 4.33348C16.723 4.3754 16.4735 4.47904 16.2581 4.63591ZM10.5 6.18747H12.75C13.0653 6.18784 13.37 6.30173 13.6083 6.50832C13.8465 6.7149 14.0024 7.00036 14.0475 7.31247C14.441 7.06497 14.7555 6.71012 14.9539 6.28977C15.1523 5.86942 15.2265 5.40109 15.1675 4.94C15.1085 4.47892 14.9189 4.04431 14.6211 3.68742C14.3233 3.33054 13.9296 3.06625 13.4865 2.92574C13.0434 2.78522 12.5694 2.77433 12.1203 2.89436C11.6712 3.01438 11.2658 3.26031 10.9519 3.60315C10.638 3.94598 10.4287 4.37143 10.3486 4.82932C10.2685 5.28721 10.3211 5.75845 10.5 6.18747ZM3.75 16.6875H12.75C12.7997 16.6875 12.8474 16.6677 12.8826 16.6326C12.9177 16.5974 12.9375 16.5497 12.9375 16.5V7.49997C12.9375 7.45024 12.9177 7.40255 12.8826 7.36739C12.8474 7.33222 12.7997 7.31247 12.75 7.31247H3.75C3.70027 7.31247 3.65258 7.33222 3.61742 7.36739C3.58225 7.40255 3.5625 7.45024 3.5625 7.49997V16.5C3.5625 16.5497 3.58225 16.5974 3.61742 16.6326C3.65258 16.6677 3.70027 16.6875 3.75 16.6875ZM17.4375 15.75V8.99997C17.4375 8.95024 17.4177 8.90255 17.3826 8.86739C17.3474 8.83222 17.2997 8.81247 17.25 8.81247H14.0625V16.5C14.0625 16.8481 13.9242 17.1819 13.6781 17.428C13.4319 17.6742 13.0981 17.8125 12.75 17.8125H8.54062C9.00666 18.7636 9.7811 19.5289 10.7377 19.9836C11.6943 20.4383 12.7768 20.5556 13.8086 20.3164C14.8404 20.0772 15.7608 19.4956 16.4198 18.6664C17.0788 17.8371 17.4375 16.8092 17.4375 15.75ZM20.4375 8.81247H18.5475C18.5568 8.87456 18.5618 8.9372 18.5625 8.99997V15.75C18.5624 16.0469 18.5399 16.3433 18.495 16.6368C19.0439 16.523 19.5367 16.2235 19.8906 15.7887C20.2444 15.3539 20.4375 14.8105 20.4375 14.25V8.81247Z"/>
</mask>
<path d="M7.6875 10.3125H6.75C6.60082 10.3125 6.45774 10.2532 6.35225 10.1477C6.24676 10.0422 6.1875 9.89915 6.1875 9.74997C6.1875 9.60079 6.24676 9.45771 6.35225 9.35222C6.45774 9.24673 6.60082 9.18747 6.75 9.18747H9.75C9.89918 9.18747 10.0423 9.24673 10.1477 9.35222C10.2532 9.45771 10.3125 9.60079 10.3125 9.74997C10.3125 9.89915 10.2532 10.0422 10.1477 10.1477C10.0423 10.2532 9.89918 10.3125 9.75 10.3125H8.8125V14.25C8.8125 14.3992 8.75324 14.5422 8.64775 14.6477C8.54226 14.7532 8.39918 14.8125 8.25 14.8125C8.10082 14.8125 7.95774 14.7532 7.85225 14.6477C7.74676 14.5422 7.6875 14.3992 7.6875 14.25V10.3125ZM21.5625 8.69434V14.25C21.5626 15.1629 21.2128 16.0411 20.5849 16.7038C19.9571 17.3665 19.0991 17.7633 18.1875 17.8125C17.7702 18.9171 17.0264 19.8685 16.055 20.5399C15.0837 21.2114 13.9308 21.571 12.75 21.571C11.5692 21.571 10.4163 21.2114 9.44496 20.5399C8.4736 19.8685 7.72977 18.9171 7.3125 17.8125H3.75C3.4019 17.8125 3.06806 17.6742 2.82192 17.428C2.57578 17.1819 2.4375 16.8481 2.4375 16.5V7.49997C2.4375 7.15187 2.57578 6.81803 2.82192 6.57189C3.06806 6.32575 3.4019 6.18747 3.75 6.18747H9.31312C9.08576 5.34602 9.17477 4.4504 9.5633 3.67016C9.95184 2.88992 10.6129 2.27919 11.4215 1.95358C12.23 1.62798 13.1299 1.61009 13.9507 1.9033C14.7715 2.19651 15.4564 2.78047 15.8756 3.54466C16.4384 3.22885 17.0927 3.1162 17.7287 3.22561C18.3647 3.33501 18.9438 3.65981 19.3687 4.14552C19.7936 4.63123 20.0386 5.2483 20.0625 5.89321C20.0864 6.53812 19.8878 7.17163 19.5 7.68747H20.5575C20.8241 7.68821 21.0796 7.79459 21.268 7.98331C21.4564 8.17203 21.5623 8.4277 21.5625 8.69434ZM16.2581 4.63591C16.2943 4.83859 16.3125 5.04408 16.3125 5.24997C16.3127 6.15542 15.9681 7.02697 15.3488 7.68747H17.25C17.5165 7.68772 17.7792 7.62487 18.0167 7.50407C18.2542 7.38326 18.4597 7.20793 18.6164 6.99243C18.7731 6.77693 18.8766 6.52738 18.9183 6.26421C18.96 6.00105 18.9388 5.73174 18.8564 5.47833C18.7741 5.22493 18.6329 4.99463 18.4444 4.80629C18.2559 4.61794 18.0255 4.47691 17.772 4.39473C17.5186 4.31255 17.2493 4.29156 16.9861 4.33348C16.723 4.3754 16.4735 4.47904 16.2581 4.63591ZM10.5 6.18747H12.75C13.0653 6.18784 13.37 6.30173 13.6083 6.50832C13.8465 6.7149 14.0024 7.00036 14.0475 7.31247C14.441 7.06497 14.7555 6.71012 14.9539 6.28977C15.1523 5.86942 15.2265 5.40109 15.1675 4.94C15.1085 4.47892 14.9189 4.04431 14.6211 3.68742C14.3233 3.33054 13.9296 3.06625 13.4865 2.92574C13.0434 2.78522 12.5694 2.77433 12.1203 2.89436C11.6712 3.01438 11.2658 3.26031 10.9519 3.60315C10.638 3.94598 10.4287 4.37143 10.3486 4.82932C10.2685 5.28721 10.3211 5.75845 10.5 6.18747ZM3.75 16.6875H12.75C12.7997 16.6875 12.8474 16.6677 12.8826 16.6326C12.9177 16.5974 12.9375 16.5497 12.9375 16.5V7.49997C12.9375 7.45024 12.9177 7.40255 12.8826 7.36739C12.8474 7.33222 12.7997 7.31247 12.75 7.31247H3.75C3.70027 7.31247 3.65258 7.33222 3.61742 7.36739C3.58225 7.40255 3.5625 7.45024 3.5625 7.49997V16.5C3.5625 16.5497 3.58225 16.5974 3.61742 16.6326C3.65258 16.6677 3.70027 16.6875 3.75 16.6875ZM17.4375 15.75V8.99997C17.4375 8.95024 17.4177 8.90255 17.3826 8.86739C17.3474 8.83222 17.2997 8.81247 17.25 8.81247H14.0625V16.5C14.0625 16.8481 13.9242 17.1819 13.6781 17.428C13.4319 17.6742 13.0981 17.8125 12.75 17.8125H8.54062C9.00666 18.7636 9.7811 19.5289 10.7377 19.9836C11.6943 20.4383 12.7768 20.5556 13.8086 20.3164C14.8404 20.0772 15.7608 19.4956 16.4198 18.6664C17.0788 17.8371 17.4375 16.8092 17.4375 15.75ZM20.4375 8.81247H18.5475C18.5568 8.87456 18.5618 8.9372 18.5625 8.99997V15.75C18.5624 16.0469 18.5399 16.3433 18.495 16.6368C19.0439 16.523 19.5367 16.2235 19.8906 15.7887C20.2444 15.3539 20.4375 14.8105 20.4375 14.25V8.81247Z" fill="black"/>
<path d="M7.6875 10.3125H9.6875V8.31247H7.6875V10.3125ZM8.8125 10.3125V8.31247H6.8125V10.3125H8.8125ZM21.5625 8.69434H23.5625V8.69249L21.5625 8.69434ZM21.5625 14.25L19.5625 14.25V14.2502L21.5625 14.25ZM18.1875 17.8125L18.0797 15.8154L16.7774 15.8856L16.3165 17.1057L18.1875 17.8125ZM7.3125 17.8125L9.18347 17.1057L8.69495 15.8125H7.3125V17.8125ZM3.75 17.8125V15.8125V17.8125ZM9.31312 6.18747V8.18747H11.9253L11.2439 5.66576L9.31312 6.18747ZM15.8756 3.54466L14.1222 4.50663L15.0934 6.27694L16.8543 5.28883L15.8756 3.54466ZM19.5 7.68747L17.9014 6.48564L15.4943 9.68747L19.5 9.68747V7.68747ZM20.5575 7.68747L20.5631 5.68747H20.5575V7.68747ZM16.2581 4.63591L15.0807 3.01924L14.0694 3.75575L14.2892 4.98733L16.2581 4.63591ZM16.3125 5.24997L14.3125 5.24999V5.25037L16.3125 5.24997ZM15.3488 7.68747L13.8898 6.31945L10.7317 9.68747H15.3488V7.68747ZM17.25 7.68747L17.2519 5.68747H17.25V7.68747ZM10.5 6.18747L8.65411 6.95733L9.16716 8.18747H10.5V6.18747ZM12.75 6.18747L12.7523 4.18747H12.75V6.18747ZM14.0475 7.31247L12.068 7.59818L12.5076 10.6438L15.1124 9.00541L14.0475 7.31247ZM17.4375 15.75H15.4375V15.75L17.4375 15.75ZM14.0625 8.81247V6.81247H12.0625V8.81247H14.0625ZM8.54062 17.8125V15.8125H5.33351L6.74463 18.6925L8.54062 17.8125ZM20.4375 8.81247H22.4375V6.81247H20.4375V8.81247ZM18.5475 8.81247V6.81247H16.227L16.5694 9.10755L18.5475 8.81247ZM18.5625 8.99997H20.5625V8.98839L20.5624 8.97681L18.5625 8.99997ZM18.5625 15.75L20.5625 15.7504V15.75H18.5625ZM18.495 16.6368L16.518 16.3346L16.083 19.1796L18.9012 18.5952L18.495 16.6368ZM20.4375 14.25H18.4375V14.2501L20.4375 14.25ZM7.6875 8.31247H6.75V12.3125H7.6875V8.31247ZM6.75 8.31247C7.13125 8.31247 7.49689 8.46392 7.76647 8.7335L4.93804 11.5619C5.4186 12.0425 6.07038 12.3125 6.75 12.3125V8.31247ZM7.76647 8.7335C8.03605 9.00308 8.1875 9.36872 8.1875 9.74997H4.1875C4.1875 10.4296 4.45748 11.0814 4.93804 11.5619L7.76647 8.7335ZM8.1875 9.74997C8.1875 10.1312 8.03605 10.4969 7.76647 10.7664L4.93804 7.93801C4.45748 8.41857 4.1875 9.07035 4.1875 9.74997H8.1875ZM7.76647 10.7664C7.49689 11.036 7.13125 11.1875 6.75 11.1875V7.18747C6.07038 7.18747 5.4186 7.45745 4.93804 7.93801L7.76647 10.7664ZM6.75 11.1875H9.75V7.18747H6.75V11.1875ZM9.75 11.1875C9.36875 11.1875 9.00311 11.036 8.73353 10.7664L11.562 7.93801C11.0814 7.45745 10.4296 7.18747 9.75 7.18747V11.1875ZM8.73353 10.7664C8.46395 10.4969 8.3125 10.1312 8.3125 9.74997H12.3125C12.3125 9.07035 12.0425 8.41857 11.562 7.93801L8.73353 10.7664ZM8.3125 9.74997C8.3125 9.36872 8.46395 9.00308 8.73353 8.7335L11.562 11.5619C12.0425 11.0814 12.3125 10.4296 12.3125 9.74997H8.3125ZM8.73353 8.7335C9.00311 8.46392 9.36875 8.31247 9.75 8.31247V12.3125C10.4296 12.3125 11.0814 12.0425 11.562 11.5619L8.73353 8.7335ZM9.75 8.31247H8.8125V12.3125H9.75V8.31247ZM6.8125 10.3125V14.25H10.8125V10.3125H6.8125ZM6.8125 14.25C6.8125 13.8687 6.96395 13.5031 7.23353 13.2335L10.062 16.0619C10.5425 15.5814 10.8125 14.9296 10.8125 14.25H6.8125ZM7.23353 13.2335C7.50312 12.9639 7.86875 12.8125 8.25 12.8125V16.8125C8.92961 16.8125 9.5814 16.5425 10.062 16.0619L7.23353 13.2335ZM8.25 12.8125C8.63125 12.8125 8.99688 12.9639 9.26647 13.2335L6.43804 16.0619C6.9186 16.5425 7.57039 16.8125 8.25 16.8125V12.8125ZM9.26647 13.2335C9.53605 13.5031 9.6875 13.8687 9.6875 14.25H5.6875C5.6875 14.9296 5.95748 15.5814 6.43804 16.0619L9.26647 13.2335ZM9.6875 14.25V10.3125H5.6875V14.25H9.6875ZM19.5625 8.69434V14.25H23.5625V8.69434H19.5625ZM19.5625 14.2502C19.5626 14.6513 19.4088 15.0371 19.133 15.3283L22.0368 18.0793C23.0167 17.045 23.5627 15.6744 23.5625 14.2497L19.5625 14.2502ZM19.133 15.3283C18.8572 15.6194 18.4802 15.7938 18.0797 15.8154L18.2953 19.8096C19.7179 19.7328 21.057 19.1135 22.0368 18.0793L19.133 15.3283ZM16.3165 17.1057C16.0428 17.8303 15.555 18.4543 14.9178 18.8947L17.1923 22.1851C18.4979 21.2827 19.4976 20.004 20.0585 18.5192L16.3165 17.1057ZM14.9178 18.8947C14.2807 19.3351 13.5245 19.571 12.75 19.571V23.571C14.3371 23.571 15.8867 23.0876 17.1923 22.1851L14.9178 18.8947ZM12.75 19.571C11.9755 19.571 11.2193 19.3351 10.5822 18.8947L8.30775 22.1851C9.61335 23.0876 11.1629 23.571 12.75 23.571V19.571ZM10.5822 18.8947C9.94505 18.4543 9.45716 17.8303 9.18347 17.1057L5.44153 18.5192C6.00238 20.004 7.00215 21.2827 8.30775 22.1851L10.5822 18.8947ZM7.3125 15.8125H3.75V19.8125H7.3125V15.8125ZM3.75 15.8125C3.93234 15.8125 4.10721 15.8849 4.23614 16.0138L1.40771 18.8423C2.02892 19.4635 2.87147 19.8125 3.75 19.8125V15.8125ZM4.23614 16.0138C4.36507 16.1428 4.4375 16.3176 4.4375 16.5H0.4375C0.4375 17.3785 0.786495 18.221 1.40771 18.8423L4.23614 16.0138ZM4.4375 16.5V7.49997H0.4375V16.5H4.4375ZM4.4375 7.49997C4.4375 7.68231 4.36507 7.85717 4.23614 7.98611L1.40771 5.15768C0.786494 5.77889 0.4375 6.62144 0.4375 7.49997H4.4375ZM4.23614 7.98611C4.1072 8.11504 3.93234 8.18747 3.75 8.18747V4.18747C2.87147 4.18747 2.02892 4.53646 1.40771 5.15768L4.23614 7.98611ZM3.75 8.18747H9.31312V4.18747H3.75V8.18747ZM11.2439 5.66576C11.1442 5.2967 11.1832 4.90389 11.3536 4.56168L7.773 2.77864C7.16633 3.99691 7.02735 5.39533 7.38237 6.70918L11.2439 5.66576ZM11.3536 4.56168C11.524 4.21947 11.814 3.9516 12.1686 3.80879L10.6744 0.0983708C9.41191 0.606774 8.37966 1.56037 7.773 2.77864L11.3536 4.56168ZM12.1686 3.80879C12.5232 3.66598 12.9179 3.65814 13.2779 3.78674L14.6235 0.0198541C13.3418 -0.437968 11.9368 -0.410033 10.6744 0.0983708L12.1686 3.80879ZM13.2779 3.78674C13.6379 3.91534 13.9383 4.17147 14.1222 4.50663L17.6291 2.58268C16.9745 1.38948 15.9051 0.477676 14.6235 0.0198541L13.2779 3.78674ZM16.8543 5.28883C17.0169 5.1976 17.2059 5.16505 17.3897 5.19666L18.0678 1.25456C16.9795 1.06735 15.8599 1.26011 14.8969 1.80049L16.8543 5.28883ZM17.3897 5.19666C17.5734 5.22826 17.7407 5.3221 17.8634 5.46241L20.874 2.82863C20.1469 1.99753 19.1561 1.44176 18.0678 1.25456L17.3897 5.19666ZM17.8634 5.46241C17.9862 5.60273 18.057 5.78099 18.0639 5.9673L22.0611 5.81912C22.0202 4.71562 21.6011 3.65974 20.874 2.82863L17.8634 5.46241ZM18.0639 5.9673C18.0708 6.15361 18.0134 6.33662 17.9014 6.48564L21.0986 8.8893C21.7622 8.00664 22.102 6.92263 22.0611 5.81912L18.0639 5.9673ZM19.5 9.68747H20.5575V5.68747H19.5V9.68747ZM20.5519 9.68746C20.2894 9.68673 20.0379 9.582 19.8525 9.39621L22.6835 6.57042C22.1213 6.00719 21.3589 5.6897 20.5631 5.68748L20.5519 9.68746ZM19.8525 9.39621C19.667 9.21041 19.5627 8.9587 19.5625 8.6962L23.5625 8.69249C23.5618 7.89671 23.2457 7.13365 22.6835 6.57042L19.8525 9.39621ZM14.2892 4.98733C14.3047 5.07403 14.3125 5.16193 14.3125 5.24999L18.3125 5.24995C18.3125 4.92624 18.2839 4.60316 18.227 4.28449L14.2892 4.98733ZM14.3125 5.25037C14.3126 5.6475 14.1614 6.02976 13.8898 6.31945L16.8077 9.05549C17.7747 8.02418 18.3128 6.66334 18.3125 5.24957L14.3125 5.25037ZM15.3488 9.68747H17.25V5.68747H15.3488V9.68747ZM17.2481 9.68747C17.8304 9.68802 18.4045 9.55068 18.9234 9.2867L17.1099 5.72143C17.1539 5.69906 17.2025 5.68742 17.2519 5.68747L17.2481 9.68747ZM18.9234 9.2867C19.4424 9.02272 19.8915 8.63959 20.2339 8.16868L16.9989 5.81618C17.0279 5.77628 17.0659 5.74381 17.1099 5.72143L18.9234 9.2867ZM20.2339 8.16868C20.5764 7.69777 20.8024 7.15247 20.8936 6.57739L16.943 5.95104C16.9507 5.9023 16.9698 5.85609 16.9989 5.81618L20.2339 8.16868ZM20.8936 6.57739C20.9848 6.00232 20.9385 5.41383 20.7585 4.86009L16.9544 6.09657C16.9392 6.04964 16.9352 5.99977 16.943 5.95104L20.8936 6.57739ZM20.7585 4.86009C20.5785 4.30635 20.27 3.80311 19.8581 3.39155L17.0307 6.22102C16.9958 6.18615 16.9697 6.1435 16.9544 6.09657L20.7585 4.86009ZM19.8581 3.39155C19.4462 2.97998 18.9427 2.6718 18.3889 2.49223L17.1552 6.29724C17.1083 6.28202 17.0656 6.2559 17.0307 6.22102L19.8581 3.39155ZM18.3889 2.49223C17.835 2.31265 17.2465 2.26679 16.6715 2.35839L17.3008 6.30858C17.252 6.31634 17.2022 6.31245 17.1552 6.29724L18.3889 2.49223ZM16.6715 2.35839C16.0965 2.44999 15.5513 2.67645 15.0807 3.01924L17.4356 6.25257C17.3957 6.28162 17.3495 6.30082 17.3008 6.30858L16.6715 2.35839ZM10.5 8.18747H12.75V4.18747H10.5V8.18747ZM12.7477 8.18747C12.5825 8.18727 12.4229 8.12762 12.2981 8.01941L14.9185 4.99723C14.3172 4.47585 13.5482 4.1884 12.7523 4.18747L12.7477 8.18747ZM12.2981 8.01941C12.1733 7.91119 12.0916 7.76167 12.068 7.59818L16.027 7.02676C15.9133 6.23905 15.5198 5.5186 14.9185 4.99723L12.2981 8.01941ZM15.1124 9.00541C15.8287 8.55483 16.4012 7.90883 16.7625 7.14357L13.1453 5.43597C13.1097 5.51142 13.0532 5.57511 12.9826 5.61953L15.1124 9.00541ZM16.7625 7.14357C17.1238 6.37831 17.2587 5.52571 17.1513 4.6863L13.1836 5.19371C13.1942 5.27646 13.1809 5.36052 13.1453 5.43597L16.7625 7.14357ZM17.1513 4.6863C17.044 3.84689 16.6989 3.05568 16.1566 2.40596L13.0856 4.96888C13.139 5.03294 13.1731 5.11095 13.1836 5.19371L17.1513 4.6863ZM16.1566 2.40596C15.6144 1.75625 14.8977 1.27512 14.0911 1.0193L12.8819 4.83217C12.9615 4.85739 13.0321 4.90483 13.0856 4.96888L16.1566 2.40596ZM14.0911 1.0193C13.2844 0.763495 12.4214 0.743673 11.6039 0.962177L12.6367 4.82654C12.7173 4.805 12.8024 4.80695 12.8819 4.83217L14.0911 1.0193ZM11.6039 0.962177C10.7864 1.18068 10.0483 1.6284 9.47685 2.25254L12.427 4.95376C12.4833 4.89222 12.5561 4.84808 12.6367 4.82654L11.6039 0.962177ZM9.47685 2.25254C8.90538 2.87667 8.52429 3.6512 8.37851 4.4848L12.3187 5.17384C12.3331 5.09166 12.3707 5.01529 12.427 4.95376L9.47685 2.25254ZM8.37851 4.4848C8.23274 5.3184 8.32836 6.17629 8.65411 6.95733L12.3459 5.41761C12.3138 5.34061 12.3043 5.25602 12.3187 5.17384L8.37851 4.4848ZM3.75 18.6875H12.75V14.6875H3.75V18.6875ZM12.75 18.6875C13.3302 18.6875 13.8866 18.457 14.2968 18.0468L11.4684 15.2183C11.8083 14.8784 12.2693 14.6875 12.75 14.6875V18.6875ZM14.2968 18.0468C14.707 17.6365 14.9375 17.0801 14.9375 16.5H10.9375C10.9375 16.0193 11.1285 15.5583 11.4684 15.2183L14.2968 18.0468ZM14.9375 16.5V7.49997H10.9375V16.5H14.9375ZM14.9375 7.49997C14.9375 6.91981 14.707 6.36341 14.2968 5.95317L11.4684 8.7816C11.1285 8.44169 10.9375 7.98067 10.9375 7.49997H14.9375ZM14.2968 5.95317C13.8866 5.54293 13.3302 5.31247 12.75 5.31247V9.31247C12.2693 9.31247 11.8083 9.12151 11.4684 8.7816L14.2968 5.95317ZM12.75 5.31247H3.75V9.31247H12.75V5.31247ZM3.75 5.31247C3.16984 5.31247 2.61344 5.54293 2.2032 5.95317L5.03163 8.7816C4.69172 9.12151 4.2307 9.31247 3.75 9.31247V5.31247ZM2.2032 5.95317C1.79296 6.36341 1.5625 6.91981 1.5625 7.49997H5.5625C5.5625 7.98067 5.37154 8.44169 5.03163 8.7816L2.2032 5.95317ZM1.5625 7.49997V16.5H5.5625V7.49997H1.5625ZM1.5625 16.5C1.5625 17.0801 1.79296 17.6365 2.2032 18.0468L5.03163 15.2183C5.37154 15.5583 5.5625 16.0193 5.5625 16.5H1.5625ZM2.2032 18.0468C2.61344 18.457 3.16984 18.6875 3.75 18.6875V14.6875C4.2307 14.6875 4.69172 14.8784 5.03163 15.2183L2.2032 18.0468ZM19.4375 15.75V8.99997H15.4375V15.75H19.4375ZM19.4375 8.99997C19.4375 8.41981 19.207 7.86341 18.7968 7.45317L15.9684 10.2816C15.6285 9.94169 15.4375 9.48067 15.4375 8.99997H19.4375ZM18.7968 7.45317C18.3866 7.04293 17.8302 6.81247 17.25 6.81247V10.8125C16.7693 10.8125 16.3083 10.6215 15.9684 10.2816L18.7968 7.45317ZM17.25 6.81247H14.0625V10.8125H17.25V6.81247ZM12.0625 8.81247V16.5H16.0625V8.81247H12.0625ZM12.0625 16.5C12.0625 16.3176 12.1349 16.1428 12.2639 16.0138L15.0923 18.8423C15.7135 18.221 16.0625 17.3785 16.0625 16.5H12.0625ZM12.2639 16.0138C12.3928 15.8849 12.5677 15.8125 12.75 15.8125V19.8125C13.6285 19.8125 14.4711 19.4635 15.0923 18.8423L12.2639 16.0138ZM12.75 15.8125H8.54062V19.8125H12.75V15.8125ZM6.74463 18.6925C7.40951 20.0494 8.51437 21.1412 9.87915 21.7899L11.5963 18.1773C11.0478 17.9166 10.6038 17.4778 10.3366 16.9325L6.74463 18.6925ZM9.87915 21.7899C11.2439 22.4386 12.7882 22.606 14.2603 22.2647L13.3569 18.3681C12.7653 18.5052 12.1448 18.4379 11.5963 18.1773L9.87915 21.7899ZM14.2603 22.2647C15.7323 21.9235 17.0454 21.0937 17.9856 19.9107L14.854 17.422C14.4762 17.8975 13.9485 18.2309 13.3569 18.3681L14.2603 22.2647ZM17.9856 19.9107C18.9257 18.7276 19.4375 17.2611 19.4375 15.75L15.4375 15.75C15.4375 16.3572 15.2318 16.9466 14.854 17.422L17.9856 19.9107ZM20.4375 6.81247H18.5475V10.8125H20.4375V6.81247ZM16.5694 9.10755C16.5652 9.0796 16.563 9.0514 16.5626 9.02313L20.5624 8.97681C20.5606 8.82301 20.5483 8.66951 20.5256 8.51739L16.5694 9.10755ZM16.5625 8.99997V15.75H20.5625V8.99997H16.5625ZM16.5625 15.7495C16.5625 15.9454 16.5476 16.141 16.518 16.3346L20.472 16.9391C20.5322 16.5457 20.5624 16.1484 20.5625 15.7504L16.5625 15.7495ZM18.9012 18.5952C19.9004 18.3879 20.7976 17.8426 21.4418 17.0511L18.3393 14.5263C18.2758 14.6043 18.1874 14.6581 18.0888 14.6785L18.9012 18.5952ZM21.4418 17.0511C22.0859 16.2596 22.4376 15.2703 22.4375 14.2498L18.4375 14.2501C18.4375 14.3507 18.4028 14.4483 18.3393 14.5263L21.4418 17.0511ZM22.4375 14.25V8.81247H18.4375V14.25H22.4375Z" fill="black" mask="url(#path-1-inside-1_463_3385)"/>
</svg>
